<?xml version="1.0" encoding="utf-8"?>
<!-- Generator: Adobe Illustrator 16.0.0, SVG Export Plug-In . SVG Version: 6.00 Build 0)  -->
<!DOCTYPE svg PUBLIC "-//W3C//DTD SVG 1.1//EN" "http://www.w3.org/Graphics/SVG/1.1/DTD/svg11.dtd">
<svg version="1.1"
	 id="svg18516" xmlns:sodipodi="http://sodipodi.sourceforge.net/DTD/sodipodi-0.dtd" xmlns:inkscape="http://www.inkscape.org/namespaces/inkscape" xmlns:dc="http://purl.org/dc/elements/1.1/" xmlns:cc="http://creativecommons.org/ns#" xmlns:rdf="http://www.w3.org/1999/02/22-rdf-syntax-ns#" xmlns:svg="http://www.w3.org/2000/svg" sodipodi:docname="Logo PSG.svg" inkscape:version="0.91 r13725"
	 xmlns="http://www.w3.org/2000/svg" xmlns:xlink="http://www.w3.org/1999/xlink" x="0px" y="0px" width="510px" height="509.964px"
	 viewBox="0 0 510 509.964" enable-background="new 0 0 510 509.964" xml:space="preserve">
<path d="M453.75,2H52.692v247.098c0,123.368,81.026,226.812,201.624,257.408l1.06,0.267l1.059-0.267
	c120.599-30.597,201.625-134.04,201.625-257.408V2H453.75z"/>
<path fill="#FFFFFF" d="M389.778,345.054c-8.39,0-14.529-6.035-16.024-15.752c-1.961-12.754-4.276-12.754-5.52-12.754
	c-3.237,0-8.491,5.69-13.124,10.709l-2.968,3.188l-0.286,0.305c-6.567,6.949-13.357,14.139-22.07,14.139
	c-11.986,0-18.064-12.044-18.064-35.799c0-17.488-1.352-23.757-6.025-27.948c-4.179-3.746-6.405-4.929-13.097-5.546
	c-10.692-0.986-23.892,13.871-36.654,28.235l-6.166,7.063c-12.914,14.923-25.111,29.022-39.316,29.022
	c-10.618,0-21.006-9.508-21.376-19.565c-0.007-0.211-0.012-0.422-0.012-0.635c0-10.151,8.853-21.984,26.138-45.083
	c0,0,10.676-14.341,10.697-14.368c10.31-13.963,19.325-26.182,27.067-37.245c-10.748-3.958-20.176-9.398-28.526-15.496
	c-7.815,9.611-16.627,18.857-25.621,28.281l-5.902,6.199c-25.925,27.369-52.734,55.672-52.734,92.442
	c0,24.425,17.193,50.381,49.055,50.381c15.262,0,32.407-8.382,48.278-23.599c9.514-9.124,16.788-19.109,22.647-27.677l4.146-6.201
	c6.267-9.499,10.406-15.775,16.742-15.775c9.195,0,10.568,7.919,11.895,15.577c0.664,3.825,1.489,8.585,3.159,13.973
	c2.666,8.599,12.757,23.151,33.67,23.151c8.768,0,22.16-4.707,31.058-17.978l3.948-5.889l3.409,6.217
	c1.762,3.214,4.866,7.043,9.646,7.043c4.407,0,9.877-2.489,13.811-8.726C391.048,345,390.439,345.054,389.778,345.054z"/>
<path fill="#FFFFFF" d="M192.648,152.539l-2.757-0.188l-7.768-20.507l3.484-1.741c19.329-9.654,35.984-23.55,49.5-41.305
	l2.543-3.339l3.405,2.454c8.369,6.033,15.424,8.533,26.035,9.224c1.306,0.086,2.717,0.254,4.186,0.536l83.44-87.055
	c-113.103,0-287.72,0-293.408,0c0,8.315,0,238.48,0,238.48c0,20.81,2.393,41.027,6.949,60.391l150.275-156.786
	C209.9,153.154,201.122,153.116,192.648,152.539z"/>
<path fill="#FFFFFF" d="M328.613,331.188c-1.725-2.047-3.965-8.458-3.965-22.098c0-19.186-1.544-29.702-10.323-37.572
	c-6.574-5.896-11.372-7.949-20.539-8.794c-17.202-1.586-31.922,14.982-47.505,32.521l-6.276,7.19
	c-10.444,12.07-21.245,24.554-29.541,24.554c-3.523,0-8.346-4.055-8.458-7.111c-0.042-1.158,0.348-2.638,1.082-4.395l-5.282,5.512
	c0.885,5.087,7.122,10.303,12.659,10.303c10.267,0,21.211-12.65,32.799-26.042l6.239-7.146
	c14.839-16.703,28.855-32.479,43.889-31.096c9.02,0.832,12.86,3.051,18.06,7.712c7.606,6.82,8.89,16.114,8.89,34.364
	c0,10.15,1.228,27.18,9.446,27.18c4.998,0,10.248-5.556,15.806-11.439l0.287-0.304l2.898-3.116
	c6.679-7.232,12.446-13.479,19.457-13.479c10.105,0,12.544,10.354,14.037,20.061c0.593,3.852,2.377,8.444,7.507,8.444
	c3.812,0,6.132-1.548,7.9-3.204c3.26-3.315,5.028-6.74,6.685-11.712c0.862,2.454,0.996,9.043-0.444,15.895
	c-4.284,18.361-16.723,24.876-26.072,24.876c-5.164,0-9.827-2.232-13.559-6.36c-10.518,12.366-24.333,16.965-34.502,16.965
	c-25.927,0-38.536-18.365-41.901-29.218c-1.834-5.918-2.713-10.982-3.418-15.052c-1.46-8.431-1.912-8.431-3.404-8.431
	c-1.721,0.035-6.433,7.177-9.55,11.902l-4.225,6.323c-6.11,8.929-13.714,19.362-23.796,29.028
	c-17.482,16.766-36.747,25.997-54.242,25.997c-18.244,0-32.771-7.666-42.684-18.989l-3.007,3.137
	c10.65,12.033,26.198,20.161,45.691,20.161c18.613,0,38.936-9.658,57.225-27.196c10.366-9.937,18.136-20.595,24.369-29.705
	l4.266-6.382c1.537-2.329,3.272-4.952,4.777-7.011c0.117,0.642,0.228,1.29,0.334,1.901c0.728,4.19,1.631,9.408,3.548,15.593
	c1.772,5.718,5.869,13.325,12.751,19.718L192.653,473.04c19.293,10.634,40.292,19.035,62.722,24.82
	C371.494,467.912,449.44,368.09,449.44,249.098c0,0,0-17.937,0-43.974L328.613,331.188z"/>
<path fill="#0033A0" d="M248.476,165.535c-2.226,7.118-5.245,13.823-8.88,20.236c9.537,5.989,19.293,10.159,29.511,12.641
	c4.148-6.968,7.602-13.556,10.387-19.991C268.632,176.568,258.536,172.38,248.476,165.535z"/>
<path fill="#FFFFFF" d="M288.023,139.222c0-21.29-7.231-32.555-21.494-33.486c-10.809-0.705-18.743-3.163-27.128-8.534
	c-13.018,16.23-28.628,29.244-46.5,38.765c1.138,3.004,2.123,5.605,3.054,8.064c17.395,0.944,35.912-0.275,51.274-3.531l5.63-1.192
	l-0.44,5.737c-0.556,7.237-1.923,14.032-3.943,20.489c10.06,6.846,20.156,11.034,31.017,12.886
	C285.164,165.321,288.023,152.87,288.023,139.222z M246.515,117.277l-8.324-2.386l3.175-11.066l8.323,2.387L246.515,117.277z"/>
<path fill="#0033A0" d="M186.672,236.078l5.924-6.223c23.609-24.739,45.958-48.193,50.582-79.874
	c-7.784,1.356-16.143,2.275-24.645,2.72L68.258,309.489c8.513,36.169,24.595,69.348,46.869,97.768l31.439-32.8
	c-9.704-11.082-14.989-25.665-14.989-40.009C131.577,294.244,160.848,263.344,186.672,236.078z"/>
<path fill="#0033A0" d="M449.44,10.618c-2.651,0-42.007,0-94.724,0l-83.438,87.055c10.969,2.105,25.363,10.738,25.363,41.549
	c0,39.75-22.662,70.443-63.818,126.192l-10.71,14.381c-15.391,20.572-24.681,32.986-24.414,40.242
	c0.012,0.319,0.05,0.638,0.105,0.959L449.44,58.457C449.44,31.996,449.44,12.905,449.44,10.618z"/>
<path d="M128.833,24.705c0,0-10.972,33.764-11.604,35.711c-2.047,0-42.141,0-42.141,0s32.437,23.566,34.093,24.77
	c-0.633,1.947-13.023,40.078-13.023,40.078s32.437-23.566,34.093-24.77c1.657,1.204,34.093,24.77,34.093,24.77
	s-12.39-38.131-13.022-40.078c1.656-1.204,34.093-24.77,34.093-24.77s-40.093,0-42.141,0c-0.632-1.947-13.022-40.077-13.022-40.077
	L128.833,24.705z"/>
<path fill="#FFCB00" d="M118.312,63.399h1.084c0,0,8.651-26.627,10.854-33.407c2.203,6.779,10.855,33.407,10.855,33.407
	s27.998,0,35.127,0c-5.767,4.19-28.418,20.647-28.418,20.647s8.653,26.628,10.855,33.408c-5.767-4.19-28.418-20.646-28.418-20.646
	s-22.651,16.456-28.418,20.646c2.202-6.78,10.855-33.408,10.855-33.408S90.037,67.589,84.27,63.399
	C91.398,63.399,118.312,63.399,118.312,63.399z"/>
<path fill="#FFFFFF" d="M269.106,198.412c-10.218-2.482-19.974-6.652-29.511-12.641c-0.499,0.88-1.012,1.755-1.534,2.625
	c8.272,5.173,18.021,9.802,29.433,12.689C268.042,200.188,268.582,199.296,269.106,198.412z"/>
</svg>
