<?xml version="1.0" encoding="utf-8"?>
<!-- Generator: Adobe Illustrator 21.0.2, SVG Export Plug-In . SVG Version: 6.00 Build 0)  -->
<svg version="1.1" id="Livello_1" xmlns="http://www.w3.org/2000/svg" xmlns:xlink="http://www.w3.org/1999/xlink" x="0px" y="0px"
	 width="425.19684px" height="425.19684px" viewBox="0 0 425.19684 425.19684"
	 style="enable-background:new 0 0 425.19684 425.19684;" xml:space="preserve">
<style type="text/css">
	.st0{fill:#435995;}
	.st1{fill:#000100;}
	.st2{fill:#FFFFFF;}
	.st3{fill:#B1945E;}
</style>
<circle class="st0" cx="212.59842" cy="212.59842" r="212.59842"/>
<circle class="st1" cx="212.59842" cy="212.59842" r="183.11942"/>
<circle class="st2" cx="212.59842" cy="212.59842" r="152.43628"/>
<g>
	<path class="st3" d="M102.45351,212.59842c0-53.71069,38.44559-98.43898,89.31819-108.17512
		c0.59074-0.11306,1.01933-0.62424,1.01933-1.22571v-16.5704c0-0.77621-0.69936-1.37495-1.46507-1.24786
		C130.22171,95.521,83.63119,148.61794,83.63119,212.59842s46.59052,117.07742,107.69477,127.21912
		c0.76572,0.12708,1.46507-0.47168,1.46507-1.24786v-16.5704c0-0.60147-0.42859-1.11267-1.01933-1.22571
		C140.89909,311.03741,102.45351,266.30911,102.45351,212.59842z"/>
	<path class="st3" d="M225.91588,352.94229h-20.86465c-0.69411,0-1.25681-0.56268-1.25681-1.25681V181.94333
		c0-0.69412,0.5627-1.25681,1.25681-1.25681h17.29379c0.69411,0,1.25679,0.56268,1.25679,1.25681v162.39136
		c0,0.20551,0.0504,0.4079,0.14679,0.58942l3.2773,6.172C227.47038,351.93317,226.86365,352.94229,225.91588,352.94229z"/>
	<path class="st3" d="M200.53296,75.85043l3.08218,5.13374c0.11731,0.1954,0.17928,0.41901,0.17928,0.64692v61.11829
		c0,0.69412,0.5627,1.25681,1.25681,1.25681h17.29379c0.69411,0,1.25679-0.56268,1.25679-1.25681V81.63109
		c0-0.22791,0.06198-0.45152,0.17929-0.64692l3.08218-5.13374c0.50291-0.83768-0.10046-1.90372-1.07753-1.90372h-24.17528
		C200.63342,73.94672,200.03003,75.01276,200.53296,75.85043z"/>
	<g>
		<path class="st3" d="M232.40581,117.10167v14.77211c0,0.57152,0.38812,1.06512,0.94121,1.20908
			c9.06581,2.35956,17.51828,6.23419,25.08167,11.32787c0.61945,0.41718,1.45941,0.21622,1.81128-0.44255l6.80048-12.73283
			c0.30704-0.57494,0.12759-1.29477-0.41837-1.6508c-9.82806-6.40884-20.86334-11.12121-32.69168-13.71799
			C233.14806,115.69479,232.40581,116.30071,232.40581,117.10167z"/>
		<path class="st3" d="M289.59555,150.31326c-0.49677-0.6133-1.43655-0.61351-1.94333-0.00845l-10.07446,12.02843
			l-44.87865,53.58304c-0.18947,0.22621-0.2933,0.51189-0.2933,0.80698v25.43726c0,1.17303,1.46466,1.70657,2.21915,0.80836
			l30.49928-36.30902c0.7486-0.89119,2.20187-0.37387,2.21899,0.78989l0.96338,65.52524l0.27811,18.91534
			c0.01486,1.01044,1.16302,1.60138,1.9819,1.00922c5.88629-4.25665,11.28516-9.14459,16.09921-14.56454
			c0.20648-0.23242,0.31992-0.53397,0.31992-0.84488v-96.39835c0-0.2957,0.10425-0.58194,0.29443-0.80836l0.57245-0.68149
			l11.31094-13.46553c0.33575-0.39972,0.39374-0.96822,0.14093-1.42494
			C296.48672,159.62067,293.23373,154.80489,289.59555,150.31326z"/>
	</g>
	<path class="st3" d="M136.00653,150.31326c0.49677-0.6133,1.43655-0.61351,1.94333-0.00845l10.07445,12.02843l44.87865,53.58304
		c0.18947,0.22621,0.2933,0.51189,0.2933,0.80698v25.43726c0,1.17303-1.46466,1.70657-2.21915,0.80836l-30.49927-36.30902
		c-0.7486-0.89119-2.2019-0.37387-2.21901,0.78989l-0.96338,65.52524l-0.27809,18.91534
		c-0.01486,1.01044-1.16306,1.60138-1.98192,1.00922c-5.88629-4.25665-11.28516-9.14459-16.09923-14.56454
		c-0.20645-0.23242-0.31989-0.53397-0.31989-0.84488v-96.39835c0-0.2957-0.10426-0.58194-0.29446-0.80836l-0.57243-0.68149
		l-11.31093-13.46553c-0.33575-0.39972-0.39374-0.96822-0.14094-1.42494
		C129.11533,159.62067,132.36835,154.80489,136.00653,150.31326z"/>
	<g>
		<path class="st3" d="M165.64687,280.01688v19.03494c0,0.46771,0.25732,0.90042,0.67065,1.11932
			c5.20985,2.75928,10.69385,5.0697,16.40294,6.87457c0.80789,0.2554,1.63338-0.3595,1.63338-1.20682v-16.08484V245.8187
			c0-0.2957-0.10426-0.58194-0.29445-0.80835l-16.19337-19.27802c-0.75449-0.89819-2.21915-0.36467-2.21915,0.80836V280.01688z"/>
		<path class="st3" d="M237.39616,152.2885h-51.78552c-0.69411,0-1.25681-0.5627-1.25681-1.25681v-14.56737
			c0-0.53133,0.33142-1.01056,0.83128-1.19069c2.31064-0.83263,4.66896-1.56549,7.07086-2.19095
			c0.55258-0.14391,0.94028-0.63683,0.94028-1.20784v-16.33037c-0.13567,0.02753-0.26973,0.05942-0.40523,0.08749
			c-12.20744,2.5318-26.15387,8.34895-36.88905,16.06401c-0.60759,0.43666-0.6893,1.31094-0.1864,1.86494l9.93129,10.94038v0.67867
			v27.46004c0,0.29507,0.10384,0.58075,0.2933,0.80698l16.19337,19.33417c0.75377,0.89996,2.22029,0.36694,2.22029-0.80698
			v-18.88304c0-0.69411,0.5627-1.25679,1.25681-1.25679h51.78552c0.25542,0,0.50478,0.07782,0.71484,0.2231l4.07465,2.81783
			c0.8336,0.57648,1.97166-0.02019,1.97166-1.03371v-23.5603c0-1.01352-1.13806-1.61017-1.97166-1.03369l-4.07465,2.81783
			C237.90094,152.21068,237.65158,152.2885,237.39616,152.2885z"/>
	</g>
	<g>
		<path class="st3" d="M232.40581,321.99988v16.56934c0,0.77637,0.69972,1.37534,1.46559,1.24823
			c38.6813-6.42026,71.54599-30.0545,90.45749-62.7662c0.26569-0.45959,0.21271-1.0394-0.12875-1.44589l-11.27481-13.42252
			c-0.58127-0.69199-1.67142-0.5574-2.08087,0.24823c-15.16974,29.84631-43.53525,51.85742-77.41878,58.34238
			C232.83466,320.88657,232.40581,321.39813,232.40581,321.99988z"/>
		<path class="st3" d="M232.40581,86.62714v16.5708c0,0.60131,0.42847,1.11228,1.01906,1.22531
			c32.79495,6.27635,60.42249,27.09637,75.91843,55.48839c0.42499,0.77869,1.49081,0.89429,2.0614,0.21501l11.15762-13.28299
			c0.34872-0.41518,0.39566-1.00987,0.11261-1.47234c-19.13895-31.26981-51.22559-53.75493-88.80409-59.992
			C233.10513,85.25223,232.40581,85.85095,232.40581,86.62714z"/>
	</g>
</g>
</svg>
